<svg xmlns="http://www.w3.org/2000/svg" width="30.127" height="30.127" viewBox="0 0 30.127 30.127">
  <g id="Layer_2" data-name="Layer 2" transform="translate(0)">
    <g id="Layer_1-2" data-name="Layer 1-2" transform="translate(0 0)">
      <path id="Path_238" data-name="Path 238" d="M41.017,48.6h-8a.64.64,0,0,1-.64-.64V46.5a.64.64,0,0,1,.5-.624l.794-.182c.019-1.389.029-2.851.029-3.747V40.568c0-1.334-.019-2.157-.061-3.059l-1.04-.176a.64.64,0,0,1-.534-.64V35.527a.64.64,0,0,1,.458-.614l6.656-1.968a.64.64,0,0,1,.518.07l.515.32a.64.64,0,0,1,.3.557l-.086,4.256v3.8c0,.909,0,2.384.029,3.783l.694.144a.64.64,0,0,1,.509.64v1.463A.64.64,0,0,1,41.017,48.6Zm-7.361-1.28h6.72v-.294l-.685-.144a.64.64,0,0,1-.509-.614c-.029-1.546-.038-3.293-.038-4.317V38.135l.08-3.879L33.35,36v.157l1.014.17a.64.64,0,0,1,.534.6c.054,1.126.086,2.039.086,3.639v1.376c0,1.328-.016,3.005-.038,4.269a.64.64,0,0,1-.5.611l-.784.182Z" transform="translate(-21.8 -22.384)" fill="#0f1d5b"/>
      <path id="Path_239" data-name="Path 239" d="M40.564,18.425a3.107,3.107,0,1,1,3.277-3.1A3.157,3.157,0,0,1,40.564,18.425Zm0-4.925a1.83,1.83,0,1,0,2,1.824A1.873,1.873,0,0,0,40.564,13.5Z" transform="translate(-25.356 -8.309)" fill="#0f1d5b"/>
      <path id="Path_240" data-name="Path 240" d="M15.063,30.127A15.063,15.063,0,1,1,30.127,15.063h0A15.079,15.079,0,0,1,15.063,30.127Zm0-28.847A13.783,13.783,0,1,0,28.847,15.063h0A13.8,13.8,0,0,0,15.063,1.28Z" transform="translate(0 0)" fill="#0f1d5b"/>
    </g>
  </g>
</svg>
