<svg id="Layer_1-2" data-name="Layer 1-2" xmlns="http://www.w3.org/2000/svg" width="30.129" height="22.654" viewBox="0 0 30.129 22.654">
  <path id="Path_399" data-name="Path 399" d="M663.341,1216.689H641.817l9.291-9.295a.75.75,0,0,0-1.062-1.058l-10.571,10.574a.528.528,0,0,0-.094.113.425.425,0,0,0-.034.056l-.038.075a.442.442,0,0,0-.023.075.309.309,0,0,0,0,.064.752.752,0,0,0,0,.293.521.521,0,0,0,0,.068.1.1,0,0,0,.023.075l.038.071a.4.4,0,0,0,.034.056.669.669,0,0,0,.094.116l10.571,10.571a.75.75,0,0,0,1.062-1.058l-9.291-9.295h21.524a4.423,4.423,0,0,1,4.559,4.5,4.28,4.28,0,0,1-4.236,4.6h-.45a.75.75,0,0,0,0,1.5h.518a5.739,5.739,0,0,0,5.67-6.116A5.927,5.927,0,0,0,663.341,1216.689Z" transform="translate(-639.274 -1206.141)" fill="#0f1d5b"/>
</svg>
