<svg xmlns="http://www.w3.org/2000/svg" width="31.238" height="31.238" viewBox="0 0 31.238 31.238">
  <g id="Layer_2" data-name="Layer 2" transform="translate(-1256.09 -2817.021)">
    <g id="Layer_1-2" data-name="Layer 1-2" transform="translate(1256.09 2817.021)">
      <path id="Path_422" data-name="Path 422" d="M1288.845,2847.432c2.751,0,5.107-1.991,6.6-3.65a2.562,2.562,0,0,0,0-3.421c-1.49-1.659-3.846-3.65-6.6-3.65s-5.1,1.991-6.593,3.65a2.562,2.562,0,0,0,0,3.421C1283.751,2845.465,1286.1,2847.432,1288.845,2847.432Zm-5.6-6.165c1.072-1.195,3.225-3.2,5.6-3.2s4.529,2.007,5.608,3.2a1.234,1.234,0,0,1,0,1.659c-1.078,1.188-3.229,3.179-5.608,3.179s-4.533-1.991-5.6-3.2A1.234,1.234,0,0,1,1283.24,2841.267Z" transform="translate(-1273.133 -2830.177)" fill="#0f1d5b"/>
      <path id="Path_423" data-name="Path 423" d="M1298.215,2850.287a2.6,2.6,0,1,0-2.595-2.6v0A2.6,2.6,0,0,0,1298.215,2850.287Z" transform="translate(-1282.503 -2835.777)" fill="#0f1d5b"/>
      <path id="Path_424" data-name="Path 424" d="M1286.664,2817.021h-29.911a.663.663,0,0,0-.664.664v23.892a.663.663,0,0,0,.664.664h11.75v4.692h-2.754a.664.664,0,1,0,0,1.327h11.909a.664.664,0,1,0,0-1.327H1274.9v-4.692h11.76a.664.664,0,0,0,.664-.664v-23.892A.664.664,0,0,0,1286.664,2817.021Zm-.664,1.327v19.04h-28.583v-19.04Zm-12.414,28.583h-3.756v-4.692h3.756Zm.664-6.036h-16.833v-2.18H1286v2.2Z" transform="translate(-1256.09 -2817.021)" fill="#0f1d5b"/>
    </g>
  </g>
</svg>
