<svg xmlns="http://www.w3.org/2000/svg" width="23.886" height="30" viewBox="0 0 23.886 30">
  <g id="Group_354" data-name="Group 354" transform="translate(-1849 -190.291)">
    <g id="Layer_1-2" data-name="Layer 1-2" transform="translate(1849 190.291)">
      <path id="Path_328" data-name="Path 328" d="M297.973,2221.905a5.761,5.761,0,1,0,5.764,5.761A5.761,5.761,0,0,0,297.973,2221.905Zm0,10.25a4.489,4.489,0,1,1,4.492-4.489A4.489,4.489,0,0,1,297.973,2232.155Zm2.893-4.489a.636.636,0,0,1-.636.636h-1.621v1.621a.636.636,0,0,1-1.272,0V2228.3h-1.621a.636.636,0,0,1,0-1.272h1.621v-1.622a.636.636,0,0,1,1.272,0v1.622h1.621a.636.636,0,0,1,.639.633v0Zm-8.7,5.042a.636.636,0,0,1-.636.636H279.851V2204.7a1.272,1.272,0,0,1,1.272-1.272h16.214a1.272,1.272,0,0,1,1.272,1.272v15.261a.636.636,0,0,1-1.272,0V2204.7H281.123v27.374h10.406A.636.636,0,0,1,292.164,2232.708Zm3.02-25.784H283.278v6.486h11.906ZM284.55,2208.2h4.044v3.943H284.55Zm9.363,3.943h-4.047V2208.2h4.047Zm1.272,2.515H283.278v6.47h11.906Zm-10.635,1.272h4.044v3.927H284.55Zm9.363,3.927h-4.047v-3.939h4.047Zm-1.777,3.79a.636.636,0,1,0,0-1.271h-8.858v6.492h7.56a.636.636,0,0,0,0-1.272h-.973v-3.948Zm-3.542,3.948H284.55v-3.948h4.044Z" transform="translate(-279.851 -2203.427)" fill="#0f1d5b"/>
    </g>
  </g>
</svg>
