<svg xmlns="http://www.w3.org/2000/svg" width="27.359" height="30" viewBox="0 0 27.359 30">
  <g id="Group_222" data-name="Group 222" transform="translate(-1684 -120.291)">
    <g id="Group_224" data-name="Group 224" transform="translate(1684 120.291)">
      <g id="Group_18" data-name="Group 18" transform="translate(16.697 19.338)">
        <path id="Path_120" data-name="Path 120" d="M400.024,1880.7a5.331,5.331,0,1,0,5.328,5.334v-.009A5.334,5.334,0,0,0,400.024,1880.7Zm0,9.444a4.116,4.116,0,1,1,4.113-4.119,4.116,4.116,0,0,1-4.113,4.119Z" transform="translate(-394.69 -1880.702)" fill="#0f1d5b"/>
        <path id="Path_121" data-name="Path 121" d="M408.157,1891.47H406.7V1890a.608.608,0,1,0-1.215,0v1.47h-1.473a.607.607,0,1,0,0,1.215h1.473v1.473a.608.608,0,1,0,1.215,0v-1.473h1.461a.607.607,0,1,0,0-1.215Z" transform="translate(-400.754 -1886.752)" fill="#0f1d5b"/>
      </g>
      <path id="Path_122" data-name="Path 122" d="M359.126,1849.142H344.3a8.47,8.47,0,0,1,8.3-8.013h.8v-3.585l-.179-.183a9.585,9.585,0,0,1-2.661-6.681v-2.821a5.678,5.678,0,1,1,11.348,0v2.821a9.585,9.585,0,0,1-2.664,6.681l-.179.183v2.954a.608.608,0,1,0,1.215,0v-2.439a10.853,10.853,0,0,0,2.843-7.381v-2.818a6.894,6.894,0,1,0-13.779,0v2.821a10.85,10.85,0,0,0,2.84,7.378v1.814a9.759,9.759,0,0,0-9.113,9.9v.631h16.066a.631.631,0,0,0,0-1.262Z" transform="translate(-343.06 -1820.702)" fill="#0f1d5b"/>
    </g>
  </g>
</svg>
