<svg xmlns="http://www.w3.org/2000/svg" width="20" height="20" viewBox="0 0 20 20">
  <path id="Gaublys" d="M7933.135,3457.28a9.974,9.974,0,0,0-.071-9.745.437.437,0,0,0-.064-.111,10.079,10.079,0,0,0-1.355-1.807.4.4,0,0,0-.095-.1,10.031,10.031,0,0,0-3.082-2.168.417.417,0,0,0-.1-.047,9.976,9.976,0,0,0-10.373,1.473.424.424,0,0,0-.094.082,9.978,9.978,0,0,0-3.518,7.326.409.409,0,0,0,0,.077c0,.069-.005.138-.005.208a10.012,10.012,0,0,0,10,10c.053,0,.1,0,.157,0l.025,0c.01,0,.021,0,.031,0a10,10,0,0,0,8.492-5.082l.009-.009A.43.43,0,0,0,7933.135,3457.28Zm-.525-.833a1.458,1.458,0,0,1-.425-.75,1.156,1.156,0,0,1,.027-.476,1.319,1.319,0,0,0-.058-.886,1.635,1.635,0,0,0-.688-.721c-.2-.13-.271-.181-.3-.291a.507.507,0,0,1,.022-.262.743.743,0,0,0-.11-.7c-.359-.424-1-.243-1.521-.1a4.546,4.546,0,0,0-1.012.412,1.288,1.288,0,0,1-.511.189,1.451,1.451,0,0,1-1.058-.277c-.437-.432-.222-1.37-.064-2.055a3.051,3.051,0,0,1,.784-1.666c.418-.406,1.08-.83,1.568-.689a1.25,1.25,0,0,1,.454.292,1.124,1.124,0,0,0,.967.367.991.991,0,0,0,.565-.345,1.286,1.286,0,0,1,.212-.192,1.48,1.48,0,0,1,.94-.2,9.136,9.136,0,0,1,.2,8.35ZM7927.6,3444.8c-.047-.2-.055-.254-.025-.318.063-.136.283-.252.61-.327a9.187,9.187,0,0,1,2.38,1.585,8.717,8.717,0,0,1-2.594.738,3.7,3.7,0,0,1-.652.029,2.112,2.112,0,0,0,.322-.745A2.035,2.035,0,0,0,7927.6,3444.8Zm-9.173.724c.415-.087.83-.189,1.236-.308.553-.162,1-.323,1.354-.453.75-.273,1.067-.378,1.4-.245.291.116.492.345.49.425-.011.063-.229.22-.321.287-.261.188-.618.445-.579.879.043.477.513.661.856.8a3.236,3.236,0,0,1,.314.136c-.078.065-.2.15-.3.222a5.779,5.779,0,0,0-1.168,1.022,4.767,4.767,0,0,0-.875,1.618c-.181.508-.275.74-.613.907a.754.754,0,0,1-.3.081,3.575,3.575,0,0,0-.886.226c-.7.259-1.564.582-1.678,1.306-.1.624.428,1.1.712,1.355a2.932,2.932,0,0,0,.66.446,11.4,11.4,0,0,1-1.918-.53,3.88,3.88,0,0,1-1.579-1.568A9.129,9.129,0,0,1,7918.425,3445.523Zm8.987,10.775a3,3,0,0,0,.089.606.478.478,0,0,1,.021.221.955.955,0,0,1-.295.546,4.256,4.256,0,0,0-.446.629,2.579,2.579,0,0,0-.322.943,5.8,5.8,0,0,1-.183.764,7.329,7.329,0,0,1-.687,1.529c-.231.031-.465.055-.7.068-.1-.458-.189-.822-.245-1.062-.39-1.676-.508-2.182-1.032-2.557a1.309,1.309,0,0,0-.656-.247.9.9,0,0,1-.443-.162,2.151,2.151,0,0,1-.8-1.014,1.314,1.314,0,0,1-.086-.526,1.264,1.264,0,0,0-.161-.694,1.743,1.743,0,0,0-1.212-.764c.115,0,.216,0,.294-.007a2.144,2.144,0,0,0,.912-.241,1.814,1.814,0,0,1,.636-.195,4.85,4.85,0,0,1,2.453.408,3.483,3.483,0,0,1,.62.3,2.1,2.1,0,0,0,.7.291,4.413,4.413,0,0,0,1.313.1,3.126,3.126,0,0,1,.325,0c0,.026-.01.055-.016.082A3.664,3.664,0,0,0,7927.412,3456.3Zm-12.116-2.682a4.137,4.137,0,0,0,1.138.839,15.641,15.641,0,0,0,2.8.755l.165.037c.843.191,1.191.278,1.328.517a.444.444,0,0,1,.048.272,2.147,2.147,0,0,0,.138.816,3,3,0,0,0,1.143,1.438,1.731,1.731,0,0,0,.787.289.492.492,0,0,1,.278.1c.243.173.335.495.7,2.074.045.2.114.491.2.861A9.161,9.161,0,0,1,7915.3,3453.616Zm11.367,7.712a7.932,7.932,0,0,0,.425-1.069,6.668,6.668,0,0,0,.208-.864,1.759,1.759,0,0,1,.225-.676,3.379,3.379,0,0,1,.363-.508,1.761,1.761,0,0,0,.482-.986,1.283,1.283,0,0,0-.04-.523,2.158,2.158,0,0,1-.066-.452,2.77,2.77,0,0,1,.056-.772.873.873,0,0,0-.1-.749c-.268-.374-.682-.357-1.081-.34a3.594,3.594,0,0,1-1.076-.078,1.3,1.3,0,0,1-.457-.191,4.329,4.329,0,0,0-.751-.368,5.665,5.665,0,0,0-2.883-.458,2.638,2.638,0,0,0-.885.271,1.309,1.309,0,0,1-.6.158,2.617,2.617,0,0,1-1.852-.578c-.128-.115-.467-.422-.441-.591.037-.233.751-.5,1.135-.641a2.731,2.731,0,0,1,.7-.18,1.574,1.574,0,0,0,.568-.163,2.1,2.1,0,0,0,1.035-1.383,3.978,3.978,0,0,1,.724-1.356,4.975,4.975,0,0,1,1.007-.875c.4-.28.809-.57.707-1.071-.094-.459-.541-.634-.9-.775-.064-.025-.152-.059-.226-.093.045-.035.095-.071.135-.1a1.273,1.273,0,0,0,.674-.957,1.484,1.484,0,0,0-1.025-1.234,1.6,1.6,0,0,0-.653-.116,9.166,9.166,0,0,1,5.027.125,1.15,1.15,0,0,0-.3.388,1.234,1.234,0,0,0-.03.873,1.216,1.216,0,0,1,.036.589,1.4,1.4,0,0,1-.245.519.782.782,0,0,0-.16.788c.165.366.585.468,1.063.468a5.416,5.416,0,0,0,.6-.04,9.691,9.691,0,0,0,3.13-.94,9.18,9.18,0,0,1,.695.881,2.036,2.036,0,0,0-.905.333,2.1,2.1,0,0,0-.347.307.537.537,0,0,1-.1.093c-.04.009-.133-.067-.258-.175a2.02,2.02,0,0,0-.772-.464,2.757,2.757,0,0,0-2.4.9,3.841,3.841,0,0,0-1.019,2.084c-.19.83-.479,2.085.3,2.85a2.249,2.249,0,0,0,1.755.516,2.086,2.086,0,0,0,.81-.282,3.73,3.73,0,0,1,.841-.344,4.44,4.44,0,0,1,.555-.128,1.235,1.235,0,0,0,0,.578,1.312,1.312,0,0,0,.664.8.829.829,0,0,1,.371.351.508.508,0,0,1,0,.369,1.973,1.973,0,0,0-.032.793,2.412,2.412,0,0,0,.842,1.376A9.186,9.186,0,0,1,7926.663,3461.328Z" transform="translate(-7914.371 -3442.469)" fill="#0f1d5b"/>
</svg>
